<svg xmlns="http://www.w3.org/2000/svg" width="64" height="64" viewBox="0 0 64 64">
  <g id="Grupo_1900" data-name="Grupo 1900" transform="translate(-1633 -652)">
    <circle id="Elipse_188" data-name="Elipse 188" cx="32" cy="32" r="32" transform="translate(1633 652)" fill="#fff"/>
    <path id="facebook" d="M28,56A28.007,28.007,0,0,1,17.1,2.2,28.007,28.007,0,0,1,38.9,53.8,27.824,27.824,0,0,1,28,56ZM20,24.4V29.8h4.749v13.07h5.845V29.8h4.358l.83-5.407H30.594V20.889c0-1.091.4-2.92,3.048-2.92H36v-4.6A29.1,29.1,0,0,0,31.813,13c-4.423,0-7.064,2.721-7.064,7.277V24.4Z" transform="translate(1637 656)" fill="#0078f7"/>
  </g>
</svg>
