<svg xmlns="http://www.w3.org/2000/svg" width="64" height="64" viewBox="0 0 64 64">
  <g id="Grupo_1899" data-name="Grupo 1899" transform="translate(-1585 -791)">
    <circle id="Elipse_189" data-name="Elipse 189" cx="32" cy="32" r="32" transform="translate(1585 791)" fill="#fff"/>
    <path id="twitter" d="M28,56A28.007,28.007,0,0,1,17.1,2.2,28.007,28.007,0,0,1,38.9,53.8,27.824,27.824,0,0,1,28,56ZM16,35.285h0A14,14,0,0,0,37.548,23.5c0-.209,0-.426-.015-.639A10.512,10.512,0,0,0,40,20.315a9.808,9.808,0,0,1-2.832.761,4.9,4.9,0,0,0,2.163-2.711,9.744,9.744,0,0,1-3.122,1.188A4.923,4.923,0,0,0,27.7,22.919a5.52,5.52,0,0,0,.122,1.127A14.008,14.008,0,0,1,17.675,18.9,4.928,4.928,0,0,0,19.2,25.477a4.967,4.967,0,0,1-2.223-.625v.061a4.94,4.94,0,0,0,3.944,4.828,5.184,5.184,0,0,1-1.294.167,6.121,6.121,0,0,1-.929-.076,4.927,4.927,0,0,0,4.6,3.411,9.8,9.8,0,0,1-6.107,2.1A10.046,10.046,0,0,1,16,35.285Z" transform="translate(1589 795)" fill="#009fee"/>
  </g>
</svg>
