<svg xmlns="http://www.w3.org/2000/svg" width="153.098" height="58.577" viewBox="0 0 153.098 58.577">
  <defs>
    <style>
      .cls-1 {
        fill: #fff;
      }
    </style>
  </defs>
  <g id="LOGO" transform="translate(-537.069 -14.401)">
    <g id="Grupo_522" data-name="Grupo 522">
      <g id="Grupo_521" data-name="Grupo 521">
        <g id="Grupo_520" data-name="Grupo 520">
          <g id="Grupo_519" data-name="Grupo 519">
            <g id="Grupo_516" data-name="Grupo 516">
              <g id="Grupo_513" data-name="Grupo 513">
                <path id="Trazado_3077" data-name="Trazado 3077" class="cls-1" d="M557.343,33.324,569.858,61.66h-5.781l-2.941-6.9h-12.6l-2.738,6.9h-5.74l11.683-28.336ZM550.2,50.6h9.148l-4.787-11.216Z"/>
                <path id="Trazado_3078" data-name="Trazado 3078" class="cls-1" d="M578.113,33.324l9.31,11.176,9.31-11.176h4.888V61.66h-5.476v-19.9h-.162l-8.195,9.979h-.771l-8.194-9.979h-.162v19.9h-5.477V33.324Z"/>
                <path id="Trazado_3079" data-name="Trazado 3079" class="cls-1" d="M622.736,32.959a24.989,24.989,0,0,1,10.385,2.332V40.3a22.285,22.285,0,0,0-10.142-2.616,11.924,11.924,0,0,0-5.517,1.237,8.891,8.891,0,0,0-3.742,3.56,10.243,10.243,0,0,0-1.328,5.182,9.02,9.02,0,0,0,2.89,6.987A10.836,10.836,0,0,0,622.9,57.3a13.5,13.5,0,0,0,2.485-.223,16.832,16.832,0,0,0,2.829-.853v-4.7h-4.685v-4.28h10.162V58.921a16.432,16.432,0,0,1-5.02,2.282,22.467,22.467,0,0,1-6.1.822,17.715,17.715,0,0,1-8.124-1.846,13.813,13.813,0,0,1-7.717-12.6,14.144,14.144,0,0,1,2.058-7.525,13.969,13.969,0,0,1,5.741-5.233A17.88,17.88,0,0,1,622.736,32.959Z"/>
                <path id="Trazado_3080" data-name="Trazado 3080" class="cls-1" d="M644.338,33.324,661.173,53.1V33.324h5.355V61.66h-4.706l-16.937-20.1v20.1h-5.354V33.324Z"/>
              </g>
              <g id="Grupo_514" data-name="Grupo 514">
                <path id="Trazado_3081" data-name="Trazado 3081" class="cls-1" d="M538.832,68.02h.587l1.1,4.917h-.705L539.6,71.88h-.96l-.207,1.057h-.705Zm.3,1.416h-.014l-.346,1.781h.705Z"/>
                <path id="Trazado_3082" data-name="Trazado 3082" class="cls-1" d="M545.144,69.436h-.7v-.159a.745.745,0,0,0-.115-.418.419.419,0,0,0-.383-.176.461.461,0,0,0-.238.055.417.417,0,0,0-.145.141.592.592,0,0,0-.073.2,1.406,1.406,0,0,0-.02.238,2.4,2.4,0,0,0,.01.245.428.428,0,0,0,.052.173.407.407,0,0,0,.121.128,1.11,1.11,0,0,0,.217.11l.539.214a1.352,1.352,0,0,1,.38.211.856.856,0,0,1,.224.283,1.187,1.187,0,0,1,.107.373,3.613,3.613,0,0,1,.028.48,2.564,2.564,0,0,1-.062.577,1.224,1.224,0,0,1-.2.455.979.979,0,0,1-.376.3,1.339,1.339,0,0,1-.574.11,1.267,1.267,0,0,1-.476-.089,1.132,1.132,0,0,1-.632-.615,1.15,1.15,0,0,1-.093-.463v-.262h.7v.221a.572.572,0,0,0,.114.348.443.443,0,0,0,.383.156.613.613,0,0,0,.28-.052.355.355,0,0,0,.152-.145.6.6,0,0,0,.066-.231c.009-.092.014-.194.014-.3a3.042,3.042,0,0,0-.014-.318.515.515,0,0,0-.059-.2.359.359,0,0,0-.124-.124,1.593,1.593,0,0,0-.211-.1l-.5-.207a1.116,1.116,0,0,1-.611-.494,1.694,1.694,0,0,1-.156-.77,1.811,1.811,0,0,1,.076-.525,1.222,1.222,0,0,1,.225-.428,1.074,1.074,0,0,1,.376-.287,1.244,1.244,0,0,1,.532-.107,1.184,1.184,0,0,1,.853.352,1.145,1.145,0,0,1,.238.356,1.035,1.035,0,0,1,.083.4Z"/>
                <path id="Trazado_3083" data-name="Trazado 3083" class="cls-1" d="M547.63,69.18a1.258,1.258,0,0,1,.1-.525,1.1,1.1,0,0,1,.272-.376,1.191,1.191,0,0,1,.38-.225,1.226,1.226,0,0,1,.85,0,1.192,1.192,0,0,1,.38.225,1.1,1.1,0,0,1,.272.376,1.259,1.259,0,0,1,.1.525v2.6a1.25,1.25,0,0,1-.1.528,1.108,1.108,0,0,1-.272.373,1.192,1.192,0,0,1-.38.225,1.242,1.242,0,0,1-.85,0,1.191,1.191,0,0,1-.38-.225,1.107,1.107,0,0,1-.272-.373,1.249,1.249,0,0,1-.1-.528Zm.7,2.6a.469.469,0,0,0,.142.376.524.524,0,0,0,.67,0,.469.469,0,0,0,.142-.376v-2.6a.472.472,0,0,0-.142-.377.528.528,0,0,0-.67,0,.472.472,0,0,0-.142.377Z"/>
                <path id="Trazado_3084" data-name="Trazado 3084" class="cls-1" d="M554.854,71.839a1.129,1.129,0,0,1-.086.435,1.146,1.146,0,0,1-.239.363,1.188,1.188,0,0,1-.355.248,1.045,1.045,0,0,1-.439.093,1.568,1.568,0,0,1-.407-.055.971.971,0,0,1-.373-.19,1,1,0,0,1-.273-.356,1.269,1.269,0,0,1-.107-.559V69.111a1.2,1.2,0,0,1,.083-.449,1.041,1.041,0,0,1,.235-.359,1.1,1.1,0,0,1,.362-.239,1.231,1.231,0,0,1,.466-.086,1.166,1.166,0,0,1,.449.086,1.088,1.088,0,0,1,.359.242,1.116,1.116,0,0,1,.239.373,1.283,1.283,0,0,1,.086.473v.277h-.7v-.235a.576.576,0,0,0-.118-.36.383.383,0,0,0-.318-.151.356.356,0,0,0-.348.162.863.863,0,0,0-.087.411V71.77a.644.644,0,0,0,.094.359.365.365,0,0,0,.334.145.514.514,0,0,0,.149-.024.422.422,0,0,0,.145-.08.4.4,0,0,0,.107-.151.614.614,0,0,0,.042-.242v-.242h.7Z"/>
                <path id="Trazado_3085" data-name="Trazado 3085" class="cls-1" d="M557.451,68.02h.7v4.917h-.7Z"/>
                <path id="Trazado_3086" data-name="Trazado 3086" class="cls-1" d="M561.622,68.02h.587l1.1,4.917h-.7L562.4,71.88h-.959l-.208,1.057h-.7Zm.3,1.416h-.014l-.345,1.781h.7Z"/>
                <path id="Trazado_3087" data-name="Trazado 3087" class="cls-1" d="M567.893,71.839a1.129,1.129,0,0,1-.086.435,1.146,1.146,0,0,1-.239.363,1.188,1.188,0,0,1-.355.248,1.045,1.045,0,0,1-.439.093,1.568,1.568,0,0,1-.407-.055.971.971,0,0,1-.373-.19,1,1,0,0,1-.273-.356,1.269,1.269,0,0,1-.107-.559V69.111a1.2,1.2,0,0,1,.083-.449,1.041,1.041,0,0,1,.235-.359,1.1,1.1,0,0,1,.362-.239,1.231,1.231,0,0,1,.466-.086,1.166,1.166,0,0,1,.449.086,1.078,1.078,0,0,1,.359.242,1.116,1.116,0,0,1,.239.373,1.283,1.283,0,0,1,.086.473v.277h-.7v-.235a.576.576,0,0,0-.118-.36.383.383,0,0,0-.318-.151.356.356,0,0,0-.348.162.863.863,0,0,0-.087.411V71.77a.652.652,0,0,0,.094.359.366.366,0,0,0,.335.145.513.513,0,0,0,.148-.024.422.422,0,0,0,.145-.08.391.391,0,0,0,.107-.151.614.614,0,0,0,.042-.242v-.242h.7Z"/>
                <path id="Trazado_3088" data-name="Trazado 3088" class="cls-1" d="M570.49,68.02h.7v4.917h-.7Z"/>
                <path id="Trazado_3089" data-name="Trazado 3089" class="cls-1" d="M573.839,69.18a1.259,1.259,0,0,1,.1-.525,1.091,1.091,0,0,1,.273-.376,1.187,1.187,0,0,1,.379-.225,1.226,1.226,0,0,1,.85,0,1.191,1.191,0,0,1,.38.225,1.091,1.091,0,0,1,.273.376,1.259,1.259,0,0,1,.1.525v2.6a1.25,1.25,0,0,1-.1.528,1.1,1.1,0,0,1-.273.373,1.191,1.191,0,0,1-.38.225,1.242,1.242,0,0,1-.85,0,1.187,1.187,0,0,1-.379-.225,1.1,1.1,0,0,1-.273-.373,1.25,1.25,0,0,1-.1-.528Zm.705,2.6a.468.468,0,0,0,.141.376.524.524,0,0,0,.67,0,.465.465,0,0,0,.142-.376v-2.6a.469.469,0,0,0-.142-.377.528.528,0,0,0-.67,0,.472.472,0,0,0-.141.377Zm.649-4.952h.746l-.912.974h-.456Z"/>
                <path id="Trazado_3090" data-name="Trazado 3090" class="cls-1" d="M578.8,68.02h.677l1.063,2.962h.014V68.02h.705v4.917h-.663l-1.078-2.956H579.5v2.956h-.7Z"/>
                <path id="Trazado_3091" data-name="Trazado 3091" class="cls-1" d="M587.182,68.02h.677l.9,2.6h.014l.9-2.6h.684v4.917h-.7v-2.99h-.014l-.7,2.113h-.352l-.691-2.113h-.013v2.99h-.705Z"/>
                <path id="Trazado_3092" data-name="Trazado 3092" class="cls-1" d="M593.025,68.02h2.1v.663h-1.4v1.443h1.216v.663h-1.216v1.444h1.4v.7h-2.1Z"/>
                <path id="Trazado_3093" data-name="Trazado 3093" class="cls-1" d="M598.232,70.361l-.918-2.341h.745l.532,1.457.539-1.457h.746l-.939,2.341,1.015,2.576h-.746l-.615-1.658-.607,1.658h-.746Z"/>
                <path id="Trazado_3094" data-name="Trazado 3094" class="cls-1" d="M602.293,68.02h.7v4.917h-.7Z"/>
                <path id="Trazado_3095" data-name="Trazado 3095" class="cls-1" d="M607.922,71.839a1.112,1.112,0,0,1-.087.435,1.143,1.143,0,0,1-.238.363,1.188,1.188,0,0,1-.355.248,1.048,1.048,0,0,1-.439.093,1.57,1.57,0,0,1-.408-.055.979.979,0,0,1-.373-.19,1.012,1.012,0,0,1-.272-.356,1.269,1.269,0,0,1-.107-.559V69.111a1.2,1.2,0,0,1,.082-.449,1.071,1.071,0,0,1,.235-.359,1.108,1.108,0,0,1,.363-.239,1.228,1.228,0,0,1,.466-.086,1.166,1.166,0,0,1,.449.086,1.088,1.088,0,0,1,.359.242,1.114,1.114,0,0,1,.238.373,1.264,1.264,0,0,1,.087.473v.277h-.705v-.235a.576.576,0,0,0-.117-.36.383.383,0,0,0-.318-.151.359.359,0,0,0-.349.162.876.876,0,0,0-.086.411V71.77a.652.652,0,0,0,.093.359.367.367,0,0,0,.335.145.519.519,0,0,0,.149-.024.422.422,0,0,0,.145-.08.414.414,0,0,0,.107-.151.634.634,0,0,0,.041-.242v-.242h.705Z"/>
                <path id="Trazado_3096" data-name="Trazado 3096" class="cls-1" d="M611.278,68.02h.587l1.1,4.917h-.7l-.207-1.057h-.96l-.208,1.057h-.7Zm.3,1.416h-.014l-.345,1.781h.7Z"/>
                <path id="Trazado_3097" data-name="Trazado 3097" class="cls-1" d="M615.284,68.02h.677l1.063,2.962h.014V68.02h.7v4.917h-.663L616,69.981h-.014v2.956h-.7Z"/>
                <path id="Trazado_3098" data-name="Trazado 3098" class="cls-1" d="M621.161,68.02h.587l1.1,4.917h-.705l-.207-1.057h-.96l-.207,1.057h-.7Zm.3,1.416h-.014l-.345,1.781h.7Z"/>
                <path id="Trazado_3099" data-name="Trazado 3099" class="cls-1" d="M628.481,68.02h1.043a1.2,1.2,0,0,1,.919.335,1.308,1.308,0,0,1,.318.935v2.3a1.373,1.373,0,0,1-.335,1.019,1.322,1.322,0,0,1-.964.328h-.981Zm.7,4.254h.325a.524.524,0,0,0,.421-.149.717.717,0,0,0,.124-.466V69.29a.742.742,0,0,0-.117-.448.5.5,0,0,0-.428-.159h-.325Z"/>
                <path id="Trazado_3100" data-name="Trazado 3100" class="cls-1" d="M633.426,68.02h2.1v.663h-1.4v1.443h1.215v.663h-1.215v1.444h1.4v.7h-2.1Z"/>
                <path id="Trazado_3101" data-name="Trazado 3101" class="cls-1" d="M641.231,69.18a1.259,1.259,0,0,1,.1-.525,1.091,1.091,0,0,1,.273-.376,1.18,1.18,0,0,1,.38-.225,1.223,1.223,0,0,1,.849,0,1.18,1.18,0,0,1,.38.225,1.091,1.091,0,0,1,.273.376,1.259,1.259,0,0,1,.1.525v.249h-.7V69.18a.469.469,0,0,0-.142-.377.528.528,0,0,0-.67,0,.472.472,0,0,0-.141.377v2.6a.468.468,0,0,0,.141.376.524.524,0,0,0,.67,0,.465.465,0,0,0,.142-.376v-.926h-.559V70.23h1.263v1.547a1.25,1.25,0,0,1-.1.528,1.1,1.1,0,0,1-.273.373,1.18,1.18,0,0,1-.38.225,1.239,1.239,0,0,1-.849,0,1.18,1.18,0,0,1-.38-.225,1.1,1.1,0,0,1-.273-.373,1.25,1.25,0,0,1-.1-.528Z"/>
                <path id="Trazado_3102" data-name="Trazado 3102" class="cls-1" d="M647,68.02h.587l1.1,4.917h-.7l-.208-1.057h-.959l-.208,1.057h-.7Zm.3,1.416h-.014l-.345,1.781h.7Z"/>
                <path id="Trazado_3103" data-name="Trazado 3103" class="cls-1" d="M653.309,69.436h-.7v-.159a.752.752,0,0,0-.114-.418.42.42,0,0,0-.383-.176.458.458,0,0,0-.238.055.412.412,0,0,0-.146.141.615.615,0,0,0-.072.2,1.311,1.311,0,0,0-.021.238,2.365,2.365,0,0,0,.011.245.429.429,0,0,0,.051.173.406.406,0,0,0,.121.128,1.121,1.121,0,0,0,.218.11l.538.214a1.339,1.339,0,0,1,.38.211.86.86,0,0,1,.225.283,1.187,1.187,0,0,1,.107.373,3.8,3.8,0,0,1,.027.48,2.509,2.509,0,0,1-.062.577,1.208,1.208,0,0,1-.2.455.983.983,0,0,1-.377.3,1.337,1.337,0,0,1-.573.11,1.264,1.264,0,0,1-.476-.089,1.172,1.172,0,0,1-.381-.245,1.189,1.189,0,0,1-.252-.37,1.15,1.15,0,0,1-.093-.463v-.262h.7v.221a.572.572,0,0,0,.114.348.442.442,0,0,0,.383.156.613.613,0,0,0,.28-.052.355.355,0,0,0,.152-.145.6.6,0,0,0,.065-.231,2.848,2.848,0,0,0,.014-.3,2.78,2.78,0,0,0-.014-.318.516.516,0,0,0-.058-.2.362.362,0,0,0-.125-.124,1.581,1.581,0,0,0-.21-.1l-.505-.207a1.124,1.124,0,0,1-.611-.494,1.709,1.709,0,0,1-.155-.77A1.779,1.779,0,0,1,651,68.8a1.2,1.2,0,0,1,.224-.428,1.077,1.077,0,0,1,.377-.287,1.239,1.239,0,0,1,.531-.107,1.184,1.184,0,0,1,.853.352,1.132,1.132,0,0,1,.239.356,1.035,1.035,0,0,1,.082.4Z"/>
                <path id="Trazado_3104" data-name="Trazado 3104" class="cls-1" d="M659.1,68.02h.677l1.063,2.962h.014V68.02h.7v4.917h-.663l-1.077-2.956H659.8v2.956h-.7Z"/>
                <path id="Trazado_3105" data-name="Trazado 3105" class="cls-1" d="M664.974,68.02h.587l1.1,4.917h-.7l-.208-1.057h-.959l-.208,1.057h-.7Zm.3,1.416h-.014l-.345,1.781h.7Z"/>
                <path id="Trazado_3106" data-name="Trazado 3106" class="cls-1" d="M669.09,68.683h-.815V68.02h2.335v.663h-.815v4.254h-.7Z"/>
                <path id="Trazado_3107" data-name="Trazado 3107" class="cls-1" d="M675.2,71.832a1.115,1.115,0,0,1-.09.449,1.152,1.152,0,0,1-.607.608,1.142,1.142,0,0,1-.884,0,1.168,1.168,0,0,1-.363-.245,1.18,1.18,0,0,1-.245-.363,1.115,1.115,0,0,1-.09-.449V68.02h.7v3.743a.524.524,0,0,0,.125.386.448.448,0,0,0,.621,0,.524.524,0,0,0,.125-.386V68.02h.7Z"/>
                <path id="Trazado_3108" data-name="Trazado 3108" class="cls-1" d="M677.868,68.02H679q1.242,0,1.243,1.443a1.822,1.822,0,0,1-.135.736,1.045,1.045,0,0,1-.473.493l.76,2.245h-.746l-.656-2.1h-.421v2.1h-.705Zm.705,2.2h.4a.7.7,0,0,0,.3-.052.383.383,0,0,0,.169-.148.641.641,0,0,0,.08-.239,2.7,2.7,0,0,0,0-.656.6.6,0,0,0-.087-.242.39.39,0,0,0-.183-.148.835.835,0,0,0-.311-.048h-.365Z"/>
                <path id="Trazado_3109" data-name="Trazado 3109" class="cls-1" d="M683.593,68.02h.587l1.1,4.917h-.7l-.207-1.057h-.96l-.208,1.057h-.7Zm.3,1.416h-.013l-.346,1.781h.705Z"/>
                <path id="Trazado_3110" data-name="Trazado 3110" class="cls-1" d="M687.627,68.02h.7v4.213h1.4v.7h-2.1Z"/>
              </g>
              <g id="Grupo_515" data-name="Grupo 515">
                <line id="Línea_19" data-name="Línea 19" class="cls-1" x2="144.799" transform="translate(537.29 64.48)"/>
                <path id="Trazado_3111" data-name="Trazado 3111" class="cls-1" d="M682.089,64.7H537.29a.222.222,0,0,1,0-.444h144.8a.222.222,0,0,1,0,.444Z"/>
              </g>
            </g>
            <g id="Grupo_518" data-name="Grupo 518">
              <path id="Trazado_3112" data-name="Trazado 3112" class="cls-1" d="M684.688,14.4c-7.409,3.658-25.406,15.517-9.384,30.8-.019-1.064.524-4.98.907-7.643-1.257-3.309-3.878-7.719,1.363-12.333.475,1.813,1.222,3.723,5.067,6.59a4.244,4.244,0,0,0,.611-.14C680.1,25.885,679.872,20.374,684.688,14.4Z"/>
              <g id="Grupo_517" data-name="Grupo 517">
                <path id="Trazado_3113" data-name="Trazado 3113" class="cls-1" d="M684.46,45.927a41.706,41.706,0,0,1,1.849,11.77c1.124-2.258,2.026-4.144,2.7-5.8A26.875,26.875,0,0,0,684.46,45.927Z"/>
                <path id="Trazado_3114" data-name="Trazado 3114" class="cls-1" d="M676.26,46.259c.926.834,6.3,8.52,6.576,11.53a22.255,22.255,0,0,1-1.714,6.908c.715-.009,1.251,0,1.251,0a30.45,30.45,0,0,0,.332-20.748c-.916-.825-3.213-8.323-4.423-9.134C677.361,36.462,676.26,43.666,676.26,46.259Z"/>
                <path id="Trazado_3115" data-name="Trazado 3115" class="cls-1" d="M683.615,32.345c-.832.508-3.233.625-4.978.532a41.008,41.008,0,0,0-1.387,5.54c.378.572,4.539,4.707,5.455,5.532q-.3-.89-.657-1.765c.871.321,1.711,1.7,2.412,3.743A26.875,26.875,0,0,1,689,51.894C691.752,45.083,689.5,41.356,683.615,32.345Z"/>
              </g>
            </g>
          </g>
        </g>
      </g>
    </g>
  </g>
</svg>
