<svg xmlns="http://www.w3.org/2000/svg" width="64" height="64" viewBox="0 0 64 64">
  <defs>
    <style>
      .cls-1 {
        fill: #fff;
      }

      .cls-2 {
        fill: #0077b5;
      }
    </style>
  </defs>
  <g id="Grupo_393" data-name="Grupo 393" transform="translate(2800 -1589)">
    <circle id="Elipse_31" data-name="Elipse 31" class="cls-1" cx="32" cy="32" r="32" transform="translate(-2800 1589)"/>
    <circle id="Elipse_30" data-name="Elipse 30" class="cls-2" cx="28" cy="28" r="28" transform="translate(-2796 1593)"/>
    <path id="Icon_awesome-linkedin-in" data-name="Icon awesome-linkedin-in" class="cls-1" d="M6.156,27.5H.454V9.14h5.7ZM3.3,6.636A3.318,3.318,0,1,1,6.6,3.3,3.33,3.33,0,0,1,3.3,6.636ZM27.494,27.5H21.805V18.563c0-2.13-.043-4.862-2.964-4.862-2.964,0-3.419,2.314-3.419,4.708V27.5h-5.7V9.14H15.2v2.5h.08A5.991,5.991,0,0,1,20.67,8.68c5.77,0,6.831,3.8,6.831,8.735V27.5Z" transform="translate(-2782 1606.999)"/>
  </g>
</svg>
