<svg xmlns="http://www.w3.org/2000/svg" width="64" height="64" viewBox="0 0 64 64">
  <g id="Grupo_1912" data-name="Grupo 1912" transform="translate(-1597 -522)">
    <circle id="Elipse_188" data-name="Elipse 188" cx="32" cy="32" r="32" transform="translate(1597 522)" fill="#fff"/>
    <path id="Exclusión_1" data-name="Exclusión 1" d="M28,56A28.007,28.007,0,0,1,17.1,2.2,28.007,28.007,0,0,1,38.9,53.8,27.824,27.824,0,0,1,28,56ZM20.35,25.88a.741.741,0,0,0-.526.221l-1.74,1.74A7.125,7.125,0,0,0,28.16,37.916l3.15-3.15.017-.017a7.127,7.127,0,0,0-.979-10.865.756.756,0,0,0-.436-.138.743.743,0,0,0-.529.219l-.987.987a1.855,1.855,0,0,0-.548,1.4.756.756,0,0,0,.326.591,3.459,3.459,0,0,1,.484.4,3.373,3.373,0,0,1,0,4.774l-3.15,3.149a3.379,3.379,0,0,1-4.8-.023,3.408,3.408,0,0,1,.054-4.78l.614-.613a.754.754,0,0,0,.177-.779A8.612,8.612,0,0,1,21.1,26.6.747.747,0,0,0,20.35,25.88ZM32.878,16a7.077,7.077,0,0,0-5.039,2.084l-3.15,3.15-.016.017a7.123,7.123,0,0,0,.978,10.865.76.76,0,0,0,.437.138.741.741,0,0,0,.528-.219l.987-.986a1.856,1.856,0,0,0,.548-1.4.752.752,0,0,0-.326-.59,3.511,3.511,0,0,1-.484-.4,3.373,3.373,0,0,1,0-4.773l3.15-3.15a3.378,3.378,0,0,1,4.8.024,3.407,3.407,0,0,1-.054,4.779l-.614.614a.751.751,0,0,0-.177.778A8.623,8.623,0,0,1,34.9,29.4a.749.749,0,0,0,1.28.5l1.739-1.739A7.122,7.122,0,0,0,32.878,16Z" transform="translate(1601 526)" fill="#0c2e56"/>
  </g>
</svg>
